<svg width="493" height="565" viewBox="0 0 493 565" fill="none" xmlns="http://www.w3.org/2000/svg">
<path d="M235.37 99.3901H453.77C464.109 99.4033 474.021 103.517 481.332 110.828C488.644 118.139 492.757 128.051 492.77 138.39V662.79C492.757 673.129 488.644 683.042 481.332 690.353C474.021 697.664 464.109 701.777 453.77 701.79H235.37C225.031 701.777 215.118 697.664 207.807 690.353C200.496 683.042 196.383 673.129 196.37 662.79V138.39C196.359 133.266 197.361 128.19 199.317 123.453C201.273 118.717 204.146 114.413 207.769 110.79C211.393 107.166 215.696 104.294 220.433 102.337C225.169 100.381 230.245 99.3796 235.37 99.3901Z" fill="#00261A"/>
<path d="M450.97 115H416.97V119.1C416.965 124.244 414.919 129.175 411.282 132.812C407.645 136.449 402.714 138.495 397.57 138.5H289.37C284.226 138.495 279.295 136.449 275.658 132.812C272.021 129.175 269.975 124.244 269.97 119.1V115H238.2C235.113 114.996 232.055 115.601 229.202 116.781C226.349 117.96 223.757 119.691 221.574 121.874C219.391 124.057 217.66 126.649 216.481 129.502C215.301 132.355 214.696 135.413 214.7 138.5V662.5C214.696 665.587 215.301 668.645 216.481 671.498C217.66 674.351 219.391 676.943 221.574 679.126C223.757 681.309 226.349 683.04 229.202 684.219C232.055 685.399 235.113 686.004 238.2 686H450.9C453.987 686.004 457.045 685.399 459.898 684.219C462.751 683.04 465.343 681.309 467.526 679.126C469.709 676.943 471.44 674.351 472.619 671.498C473.799 668.645 474.404 665.587 474.4 662.5V138.6C474.425 135.511 473.838 132.447 472.674 129.585C471.509 126.724 469.79 124.121 467.614 121.927C465.439 119.733 462.851 117.992 460 116.803C457.148 115.614 454.089 115.001 451 115H450.97Z" fill="white"/>
<path d="M344.52 339.22C384.997 339.22 417.81 306.407 417.81 265.93C417.81 225.453 384.997 192.64 344.52 192.64C304.043 192.64 271.23 225.453 271.23 265.93C271.23 306.407 304.043 339.22 344.52 339.22Z" fill="#00FFB6"/>
<path d="M401.84 363.78H271.5C253.689 363.78 239.25 378.219 239.25 396.03C239.25 413.841 253.689 428.28 271.5 428.28H401.84C419.651 428.28 434.09 413.841 434.09 396.03C434.09 378.219 419.651 363.78 401.84 363.78Z" fill="#E0E0E0"/>
<path d="M319.87 117.39H353.47C354.504 117.39 355.496 117.801 356.228 118.532C356.959 119.264 357.37 120.256 357.37 121.29V121.99C357.37 123.025 356.959 124.016 356.228 124.748C355.496 125.479 354.504 125.89 353.47 125.89H319.87C318.836 125.89 317.844 125.479 317.112 124.748C316.381 124.016 315.97 123.025 315.97 121.99V121.19C315.973 120.683 316.076 120.182 316.274 119.716C316.472 119.249 316.761 118.827 317.124 118.473C317.487 118.12 317.917 117.842 318.388 117.656C318.86 117.47 319.363 117.38 319.87 117.39Z" fill="#E6E8EC"/>
<path d="M368.37 126.4C371.021 126.4 373.17 124.251 373.17 121.6C373.17 118.949 371.021 116.8 368.37 116.8C365.719 116.8 363.57 118.949 363.57 121.6C363.57 124.251 365.719 126.4 368.37 126.4Z" fill="#E6E8EC"/>
<path d="M401.84 443.56H271.5C253.689 443.56 239.25 457.999 239.25 475.81C239.25 493.621 253.689 508.06 271.5 508.06H401.84C419.651 508.06 434.09 493.621 434.09 475.81C434.09 457.999 419.651 443.56 401.84 443.56Z" fill="#E0E0E0"/>
<path d="M39.2 0.730185H257.6C267.939 0.743415 277.852 4.85639 285.163 12.1674C292.474 19.4785 296.587 29.3908 296.6 39.7302V564.13C296.587 574.469 292.474 584.382 285.163 591.693C277.852 599.004 267.939 603.117 257.6 603.13H39.2C28.8607 603.117 18.9485 599.004 11.6375 591.693C4.32642 584.382 0.213264 574.469 0.200034 564.13V39.7302C0.189489 34.6057 1.19104 29.5294 3.14724 24.7929C5.10344 20.0565 7.97574 15.7529 11.5993 12.1294C15.2229 8.50577 19.5264 5.63341 24.2629 3.67721C28.9994 1.72101 34.0755 0.719641 39.2 0.730185Z" fill="#00261A"/>
<path d="M254.83 16.33H220.83V20.4301C220.825 25.5736 218.779 30.5049 215.142 34.142C211.505 37.779 206.574 39.8247 201.43 39.83H93.2C88.0565 39.8247 83.1251 37.779 79.488 34.142C75.8509 30.5049 73.8053 25.5736 73.8 20.4301V16.33H42C38.9128 16.326 35.8552 16.9312 33.0023 18.1107C30.1493 19.2903 27.5572 21.0213 25.3742 23.2042C23.1913 25.3872 21.4604 27.9795 20.2808 30.8324C19.1013 33.6854 18.4961 36.7428 18.5 39.83V563.83C18.4961 566.917 19.1013 569.975 20.2808 572.828C21.4604 575.681 23.1913 578.273 25.3742 580.456C27.5572 582.639 30.1493 584.37 33.0023 585.549C35.8552 586.729 38.9128 587.334 42 587.33H254.7C257.787 587.334 260.845 586.729 263.698 585.549C266.551 584.37 269.143 582.639 271.326 580.456C273.509 578.273 275.24 575.681 276.419 572.828C277.599 569.975 278.204 566.917 278.2 563.83V39.9301C278.225 36.8407 277.638 33.777 276.474 30.9154C275.309 28.0539 273.59 25.4511 271.415 23.2572C269.239 21.0634 266.651 19.3219 263.8 18.133C260.948 16.944 257.889 16.3312 254.8 16.33H254.83Z" fill="white"/>
<path d="M123.73 18.7302H157.33C157.842 18.7302 158.349 18.8311 158.823 19.0271C159.296 19.2231 159.726 19.5102 160.088 19.8723C160.45 20.2344 160.737 20.6645 160.933 21.1377C161.129 21.6108 161.23 22.118 161.23 22.6301V23.3301C161.23 23.8422 161.129 24.3493 160.933 24.8225C160.737 25.2957 160.45 25.7257 160.088 26.0879C159.726 26.45 159.296 26.7373 158.823 26.9333C158.349 27.1293 157.842 27.2302 157.33 27.2302H123.73C122.696 27.2302 121.704 26.8193 120.972 26.0879C120.241 25.3565 119.83 24.3644 119.83 23.3301V22.53C119.833 22.0232 119.936 21.5221 120.134 21.0556C120.332 20.5892 120.621 20.1669 120.984 19.8132C121.347 19.4596 121.777 19.1818 122.248 18.9958C122.72 18.8099 123.223 18.7196 123.73 18.7302Z" fill="#E6E8EC"/>
<path d="M172.23 27.7301C174.881 27.7301 177.03 25.581 177.03 22.9301C177.03 20.2791 174.881 18.13 172.23 18.13C169.579 18.13 167.43 20.2791 167.43 22.9301C167.43 25.581 169.579 27.7301 172.23 27.7301Z" fill="#E6E8EC"/>
<path d="M354.69 256.71L351.87 264.6L295.68 265.16C296.182 263.798 296.596 262.405 296.92 260.99C297.74 258.14 298.46 256.71 299.06 256.71H354.69ZM351.31 269.1L348.49 276.98L297.93 277.55C298.447 276.194 298.872 274.804 299.2 273.39C300.03 270.54 300.7 269.11 301.2 269.11L351.31 269.1ZM361.67 276.31L378.45 280.81C378.76 280.893 379.026 281.091 379.194 281.365C379.361 281.639 379.417 281.966 379.35 282.28C376.533 288.856 371.929 294.51 366.06 298.6C359.782 303.052 352.245 305.382 344.55 305.25C332.923 305.25 323.427 301.457 316.06 293.87C308.693 286.283 305.053 277.013 305.14 266.06C305.14 254.873 308.857 245.49 316.29 237.91C323.723 230.33 332.957 226.5 343.99 226.42C352.77 226.42 360.017 228.373 365.73 232.28C371.443 236.187 375.11 239.853 376.73 243.28L378.98 248.69C378.981 248.905 378.918 249.115 378.799 249.293C378.679 249.471 378.509 249.61 378.31 249.69L361.64 256.11C361.26 256.26 360.96 256.11 360.74 255.55C357.407 248.79 351.963 245.41 344.41 245.41C341.915 245.332 339.435 245.818 337.154 246.833C334.874 247.848 332.852 249.364 331.24 251.27C327.793 255.438 325.99 260.724 326.17 266.13C326.17 272.657 327.97 277.657 331.57 281.13C334.568 283.932 338.366 285.727 342.434 286.265C346.502 286.803 350.637 286.057 354.26 284.13C357.005 282.516 359.158 280.062 360.4 277.13C360.81 276.5 361.2 276.23 361.67 276.31Z" fill="black"/>
<path d="M152.12 94.15H71.05C53.2389 94.15 38.8 108.589 38.8 126.4C38.8 144.211 53.2389 158.65 71.05 158.65H152.12C169.931 158.65 184.37 144.211 184.37 126.4C184.37 108.589 169.931 94.15 152.12 94.15Z" fill="#E0E0E0"/>
<path d="M226.41 194.17H134.04C116.229 194.17 101.79 208.609 101.79 226.42C101.79 244.231 116.229 258.67 134.04 258.67H226.41C244.221 258.67 258.66 244.231 258.66 226.42C258.66 208.609 244.221 194.17 226.41 194.17Z" fill="#E0E0E0"/>
<path d="M152.12 294.6H71.05C53.2389 294.6 38.8 309.039 38.8 326.85C38.8 344.661 53.2389 359.1 71.05 359.1H152.12C169.931 359.1 184.37 344.661 184.37 326.85C184.37 309.039 169.931 294.6 152.12 294.6Z" fill="#00FFB6"/>
<path d="M93.0429 358.092L80.1877 345.237L67.3326 358.092L80.1877 370.947L93.0429 358.092Z" fill="#00FFB6"/>
<path d="M93.0353 157.649L80.1802 144.794L67.3249 157.65L80.18 170.505L93.0353 157.649Z" fill="#E0E0E0"/>
<path d="M231.762 257.713L218.907 244.857L206.052 257.712L218.907 270.568L231.762 257.713Z" fill="#E0E0E0"/>
<path d="M83.8038 333.96H79.1042V318.731H84.012C85.4893 318.731 86.7534 319.036 87.8044 319.646C88.8553 320.25 89.6609 321.12 90.2211 322.256C90.7813 323.386 91.0614 324.739 91.0614 326.316C91.0614 327.902 90.7788 329.268 90.2137 330.413C89.6485 331.553 88.8256 332.431 87.7449 333.045C86.6642 333.655 85.3505 333.96 83.8038 333.96ZM80.9483 332.324H83.6848C84.944 332.324 85.9875 332.081 86.8154 331.595C87.6433 331.11 88.2605 330.418 88.667 329.521C89.0735 328.623 89.2767 327.555 89.2767 326.316C89.2767 325.086 89.0759 324.028 88.6744 323.141C88.2728 322.248 87.673 321.564 86.8749 321.088C86.0767 320.607 85.0828 320.367 83.893 320.367H80.9483V332.324ZM107.004 326.346C107.004 327.952 106.714 329.34 106.134 330.51C105.554 331.68 104.759 332.582 103.747 333.216C102.736 333.851 101.581 334.168 100.282 334.168C98.9833 334.168 97.8282 333.851 96.8169 333.216C95.8056 332.582 95.0099 331.68 94.4299 330.51C93.8499 329.34 93.5599 327.952 93.5599 326.346C93.5599 324.739 93.8499 323.351 94.4299 322.181C95.0099 321.011 95.8056 320.109 96.8169 319.475C97.8282 318.84 98.9833 318.523 100.282 318.523C101.581 318.523 102.736 318.84 103.747 319.475C104.759 320.109 105.554 321.011 106.134 322.181C106.714 323.351 107.004 324.739 107.004 326.346ZM105.22 326.346C105.22 325.027 104.999 323.914 104.558 323.007C104.122 322.1 103.529 321.413 102.781 320.947C102.037 320.481 101.204 320.248 100.282 320.248C99.36 320.248 98.5247 320.481 97.7762 320.947C97.0325 321.413 96.4401 322.1 95.9989 323.007C95.5627 323.914 95.3446 325.027 95.3446 326.346C95.3446 327.664 95.5627 328.777 95.9989 329.684C96.4401 330.592 97.0325 331.278 97.7762 331.744C98.5247 332.21 99.36 332.443 100.282 332.443C101.204 332.443 102.037 332.21 102.781 331.744C103.529 331.278 104.122 330.592 104.558 329.684C104.999 328.777 105.22 327.664 105.22 326.346ZM122.181 318.731V333.96H120.397L112.098 322.003H111.949V333.96H110.105V318.731H111.89L120.218 330.718H120.367V318.731H122.181ZM125.872 333.96V318.731H135.063V320.367H127.716V325.513H134.587V327.149H127.716V332.324H135.181V333.96H125.872Z" fill="black"/>
</svg>
